<?xml version="1.0" encoding="UTF-8" standalone="no"?>
<svg
   xmlns:dc="http://purl.org/dc/elements/1.1/"
   xmlns:cc="http://creativecommons.org/ns#"
   xmlns:rdf="http://www.w3.org/1999/02/22-rdf-syntax-ns#"
   xmlns:svg="http://www.w3.org/2000/svg"
   xmlns="http://www.w3.org/2000/svg"
   xmlns:sodipodi="http://sodipodi.sourceforge.net/DTD/sodipodi-0.dtd"
   xmlns:inkscape="http://www.inkscape.org/namespaces/inkscape"
   sodipodi:docname="Facebook.svg"
   width="150"
   height="150"
   viewBox="0 0 39.687499 39.687501"
   version="1.1"
   id="svg1346"
   inkscape:version="1.0 (4035a4f, 2020-05-01)">
  <defs
     id="defs1340" />
  <sodipodi:namedview
     inkscape:window-maximized="0"
     inkscape:window-y="23"
     inkscape:window-x="0"
     inkscape:window-height="809"
     inkscape:window-width="1252"
     id="base"
     pagecolor="#ffffff"
     bordercolor="#666666"
     borderopacity="1.0"
     inkscape:pageopacity="0.0"
     inkscape:pageshadow="2"
     inkscape:zoom="1.979899"
     inkscape:cx="183.45047"
     inkscape:cy="146.33054"
     inkscape:document-units="mm"
     inkscape:current-layer="layer1"
     inkscape:document-rotation="0"
     showgrid="false"
     units="px" />
  <metadata
     id="metadata1343">
    <rdf:RDF>
      <cc:Work
         rdf:about="">
        <dc:format>image/svg+xml</dc:format>
        <dc:type
           rdf:resource="http://purl.org/dc/dcmitype/StillImage" />
        <dc:title />
      </cc:Work>
    </rdf:RDF>
  </metadata>
  <g
     inkscape:label="Layer 1"
     inkscape:groupmode="layer"
     id="layer1">
    <path
       d="M 39.6875,19.843751 A 19.843745,19.843751 0 0 1 19.843759,39.6875 19.843745,19.843751 0 0 1 0,19.843751 19.843745,19.843751 0 0 1 19.843759,0 19.843745,19.843751 0 0 1 39.6875,19.843751 Z"
       id="back-104"
       data-name="back"
       class="cls-20"
       style="fill:#3a5a99;stroke-width:0.466911" />
    <path
       d="M 57.973083,55.868435 H 68.31074 V 74.083332 H 57.973083 Z"
       style="fill:#ffffff;fill-opacity:1;stroke-width:0.179668"
       id="rect2283" />
    <path
       sodipodi:nodetypes="cccccscccsscccccc"
       id="path1456-4"
       data-name="Facebook"
       class="cls-2"
       d="M 16.414885,39.521694 V 24.631731 h -5.037802 v -5.790535 h 5.013009 v -4.293275 c 0,-4.963317 3.027636,-7.6683271 7.445044,-7.6683271 1.494925,-0.00693 2.989052,0.070464 4.47528,0.2316107 v 5.1866674 h -3.068999 c -2.415524,0 -2.878748,1.149838 -2.878748,2.829092 v 3.705949 h 5.749214 l -0.752774,5.79054 h -4.963362 v 14.889959 c -5.980862,0.0084 0,0 -5.980862,0.0084 z"
       style="fill:#ffffff;fill-opacity:1;stroke-width:0.827219" />
  </g>
</svg>
