<?xml version="1.0" encoding="UTF-8" standalone="no"?>
<svg
   xmlns:dc="http://purl.org/dc/elements/1.1/"
   xmlns:cc="http://creativecommons.org/ns#"
   xmlns:rdf="http://www.w3.org/1999/02/22-rdf-syntax-ns#"
   xmlns:svg="http://www.w3.org/2000/svg"
   xmlns="http://www.w3.org/2000/svg"
   xmlns:sodipodi="http://sodipodi.sourceforge.net/DTD/sodipodi-0.dtd"
   xmlns:inkscape="http://www.inkscape.org/namespaces/inkscape"
   sodipodi:docname="Instagram.svg"
   width="150"
   height="150"
   viewBox="0 0 39.687499 39.687501"
   version="1.1"
   id="svg1346"
   inkscape:version="1.0 (4035a4f, 2020-05-01)">
  <defs
     id="defs1340" />
  <sodipodi:namedview
     inkscape:window-maximized="0"
     inkscape:window-y="23"
     inkscape:window-x="0"
     inkscape:window-height="809"
     inkscape:window-width="1252"
     id="base"
     pagecolor="#ffffff"
     bordercolor="#666666"
     borderopacity="1.0"
     inkscape:pageopacity="0.0"
     inkscape:pageshadow="2"
     inkscape:zoom="0.35"
     inkscape:cx="468.57143"
     inkscape:cy="551.42857"
     inkscape:document-units="mm"
     inkscape:current-layer="layer1"
     inkscape:document-rotation="0"
     showgrid="false"
     units="px" />
  <metadata
     id="metadata1343">
    <rdf:RDF>
      <cc:Work
         rdf:about="">
        <dc:format>image/svg+xml</dc:format>
        <dc:type
           rdf:resource="http://purl.org/dc/dcmitype/StillImage" />
        <dc:title></dc:title>
      </cc:Work>
    </rdf:RDF>
  </metadata>
  <g
     inkscape:label="Layer 1"
     inkscape:groupmode="layer"
     id="layer1">
    <path
       d="M 39.6875,19.84375 A 19.843745,19.843753 0 0 1 19.843741,39.6875 19.843745,19.843753 0 0 1 0,19.84375 19.843745,19.843753 0 0 1 19.843741,0 19.843745,19.843753 0 0 1 39.6875,19.84375 Z"
       id="back-101"
       data-name="back"
       class="cls-17"
       style="fill:#d50060;stroke-width:0.46691" />
    <path
       class="cls-2"
       d="m 19.843741,10.738978 c 2.964899,0 3.319746,0 4.491705,0.06529 a 6.0371672,6.0371699 0 0 1 2.063734,0.382871 3.6932711,3.6932727 0 0 1 2.105772,2.105771 6.0371672,6.0371699 0 0 1 0.38287,2.063735 c 0.05594,1.171959 0.06529,1.526807 0.06529,4.491707 0,2.964883 0,3.31973 -0.06529,4.491689 a 6.0371672,6.0371699 0 0 1 -0.38287,2.063753 3.6932711,3.6932727 0 0 1 -2.105772,2.105771 6.0371672,6.0371699 0 0 1 -2.063734,0.38287 c -1.171959,0.05594 -1.522147,0.06529 -4.491705,0.06529 -2.969557,0 -3.319728,0 -4.491686,-0.06529 a 6.0371672,6.0371699 0 0 1 -2.063753,-0.38287 3.6932711,3.6932727 0 0 1 -2.082423,-2.110448 6.0371672,6.0371699 0 0 1 -0.38287,-2.063753 c -0.05594,-1.171941 -0.0653,-1.526806 -0.0653,-4.491689 0,-2.964882 0,-3.319747 0.0653,-4.491688 a 6.0371672,6.0371699 0 0 1 0.38287,-2.063754 3.6932711,3.6932727 0 0 1 2.082423,-2.082423 6.0371672,6.0371699 0 0 1 2.063753,-0.382871 c 1.171958,-0.05612 1.526805,-0.06529 4.491686,-0.06529 m 0,-2.0030477 c -3.016234,0 -3.394445,0 -4.580398,0.065294 A 8.1662844,8.1662879 0 0 0 12.564596,9.3381719 5.6496307,5.6496331 0 0 0 9.2962209,12.606549 8.1662844,8.1662879 0 0 0 8.7779445,15.305297 c -0.051353,1.185953 -0.065294,1.564147 -0.065294,4.5804 0,3.016253 0,3.394448 0.065294,4.580418 a 8.1662844,8.1662879 0 0 0 0.5602938,2.656711 5.6496307,5.6496331 0 0 0 3.2683757,3.268396 8.1662844,8.1662879 0 0 0 2.698747,0.518276 c 1.18597,0.05135 1.564164,0.06529 4.580415,0.06529 3.016235,0 3.394447,0 4.580399,-0.06529 a 8.1662844,8.1662879 0 0 0 2.698747,-0.518276 5.6496307,5.6496331 0 0 0 3.268374,-3.268396 8.1662844,8.1662879 0 0 0 0.518276,-2.698746 c 0.05135,-1.185953 0.06529,-1.564147 0.06529,-4.580401 0,-3.016253 0,-3.394447 -0.06529,-4.5804 A 8.1662844,8.1662879 0 0 0 30.433296,12.564531 5.6496307,5.6496331 0 0 0 27.164922,9.2961367 8.1662844,8.1662879 0 0 0 24.466175,8.7778778 c -1.185952,-0.051353 -1.564164,-0.065471 -4.580399,-0.065471 z"
       style="fill:#ffffff;stroke-width:0.46691"
       id="path1103" />
    <path
       class="cls-2"
       d="m 19.843741,14.138084 a 5.7056599,5.7056626 0 1 0 5.705663,5.705666 5.7056599,5.7056626 0 0 0 -5.705663,-5.705666 z m 0,9.408284 a 3.7026091,3.7026107 0 1 1 3.702617,-3.702618 3.7026091,3.7026107 0 0 1 -3.702617,3.702618 z"
       style="fill:#ffffff;stroke-width:0.46691"
       id="path1105" />
    <path
       d="m 27.108891,13.913967 a 1.3353672,1.3353678 0 0 1 -1.335369,1.335371 1.3353672,1.3353678 0 0 1 -1.335371,-1.335371 1.3353672,1.3353678 0 0 1 1.335371,-1.335371 1.3353672,1.3353678 0 0 1 1.335369,1.335371 z"
       class="cls-2"
       style="fill:#ffffff;stroke-width:0.46691"
       id="path1107" />
  </g>
</svg>
