<?xml version="1.0" encoding="UTF-8" standalone="no"?>
<svg
   xmlns:dc="http://purl.org/dc/elements/1.1/"
   xmlns:cc="http://creativecommons.org/ns#"
   xmlns:rdf="http://www.w3.org/1999/02/22-rdf-syntax-ns#"
   xmlns:svg="http://www.w3.org/2000/svg"
   xmlns="http://www.w3.org/2000/svg"
   xmlns:sodipodi="http://sodipodi.sourceforge.net/DTD/sodipodi-0.dtd"
   xmlns:inkscape="http://www.inkscape.org/namespaces/inkscape"
   sodipodi:docname="LinkedIn.svg"
   inkscape:version="1.0 (4035a4f, 2020-05-01)"
   id="svg1273"
   version="1.1"
   viewBox="0 0 39.6875 39.687501"
   height="150"
   width="150">
  <defs
     id="defs1267" />
  <sodipodi:namedview
     inkscape:window-maximized="0"
     inkscape:window-y="40"
     inkscape:window-x="202"
     inkscape:window-height="809"
     inkscape:window-width="1252"
     fit-margin-left="1"
     fit-margin-right="1"
     fit-margin-bottom="1"
     fit-margin-top="1"
     units="px"
     showgrid="false"
     inkscape:document-rotation="0"
     inkscape:current-layer="layer1"
     inkscape:document-units="px"
     inkscape:cy="-55.669132"
     inkscape:cx="497.78571"
     inkscape:zoom="0.98994949"
     inkscape:pageshadow="2"
     inkscape:pageopacity="0.0"
     borderopacity="1.0"
     bordercolor="#666666"
     pagecolor="#ffffff"
     id="base" />
  <metadata
     id="metadata1270">
    <rdf:RDF>
      <cc:Work
         rdf:about="">
        <dc:format>image/svg+xml</dc:format>
        <dc:type
           rdf:resource="http://purl.org/dc/dcmitype/StillImage" />
        <dc:title></dc:title>
      </cc:Work>
    </rdf:RDF>
  </metadata>
  <g
     id="layer1"
     inkscape:groupmode="layer"
     inkscape:label="Layer 1">
    <path
       d="M 38.364584,19.843743 A 18.520835,18.520828 0 0 1 19.843752,38.364584 18.520835,18.520828 0 0 1 1.3229167,19.843743 18.520835,18.520828 0 0 1 19.843752,1.3229167 18.520835,18.520828 0 0 1 38.364584,19.843743 Z"
       id="back-100"
       data-name="back"
       class="cls-16"
       style="fill:#0076b2;stroke-width:0.435783" />
    <path
       class="cls-2"
       d="M 9.7379117,16.296473 H 14.039104 V 30.128255 H 9.7379117 Z M 11.890688,9.4241542 A 2.4926864,2.4926856 0 1 1 9.3979999,11.91683 2.4926864,2.4926856 0 0 1 11.890688,9.4241542"
       style="fill:#ffffff;stroke-width:0.435783"
       id="path1098" />
    <path
       class="cls-2"
       d="m 16.736609,16.296473 h 4.118162 v 1.8913 h 0.07846 a 4.5147255,4.5147241 0 0 1 4.065868,-2.23122 c 4.357844,0 5.155329,2.863098 5.155329,6.584692 v 7.58701 h -4.296833 v -6.724149 c 0,-1.603692 -0.02614,-3.6693 -2.231215,-3.6693 -2.20507,0 -2.579845,1.743131 -2.579845,3.551634 v 6.841815 h -4.292483 z"
       style="fill:#ffffff;stroke-width:0.435783"
       id="path1100" />
  </g>
</svg>
