<?xml version="1.0" encoding="UTF-8" standalone="no"?>
<svg
   xmlns:dc="http://purl.org/dc/elements/1.1/"
   xmlns:cc="http://creativecommons.org/ns#"
   xmlns:rdf="http://www.w3.org/1999/02/22-rdf-syntax-ns#"
   xmlns:svg="http://www.w3.org/2000/svg"
   xmlns="http://www.w3.org/2000/svg"
   xmlns:sodipodi="http://sodipodi.sourceforge.net/DTD/sodipodi-0.dtd"
   xmlns:inkscape="http://www.inkscape.org/namespaces/inkscape"
   sodipodi:docname="Twitter.svg"
   inkscape:version="1.0 (4035a4f, 2020-05-01)"
   id="svg1346"
   version="1.1"
   viewBox="0 0 39.687499 39.687501"
   height="150"
   width="150">
  <defs
     id="defs1340" />
  <sodipodi:namedview
     inkscape:window-maximized="0"
     inkscape:window-y="23"
     inkscape:window-x="0"
     inkscape:window-height="809"
     inkscape:window-width="1252"
     units="px"
     showgrid="false"
     inkscape:document-rotation="0"
     inkscape:current-layer="layer1"
     inkscape:document-units="mm"
     inkscape:cy="560"
     inkscape:cx="400"
     inkscape:zoom="0.35"
     inkscape:pageshadow="2"
     inkscape:pageopacity="0.0"
     borderopacity="1.0"
     bordercolor="#666666"
     pagecolor="#ffffff"
     id="base" />
  <metadata
     id="metadata1343">
    <rdf:RDF>
      <cc:Work
         rdf:about="">
        <dc:format>image/svg+xml</dc:format>
        <dc:type
           rdf:resource="http://purl.org/dc/dcmitype/StillImage" />
        <dc:title></dc:title>
      </cc:Work>
    </rdf:RDF>
  </metadata>
  <g
     id="layer1"
     inkscape:groupmode="layer"
     inkscape:label="Layer 1">
    <path
       d="M 39.6875,19.843751 A 19.843748,19.843751 0 0 1 19.843762,39.6875 19.843748,19.843751 0 0 1 0,19.843751 19.843748,19.843751 0 0 1 19.843762,0 19.843748,19.843751 0 0 1 39.6875,19.843751 Z"
       id="back-93"
       data-name="back"
       class="cls-10"
       style="fill:#55acee;stroke-width:0.46691" />
    <path
       id="Twitter-12"
       data-name="Twitter"
       class="cls-2"
       d="m 30.956255,12.952133 a 9.2588591,9.2588604 0 0 1 -2.619369,0.719044 4.5570582,4.5570587 0 0 0 2.003046,-2.525993 9.086102,9.0861031 0 0 1 -2.894859,1.106581 4.5617276,4.5617281 0 0 0 -7.886134,3.118972 4.7765068,4.7765073 0 0 0 0.116647,1.041212 12.970807,12.970809 0 0 1 -9.403605,-4.739154 4.5617276,4.5617281 0 0 0 1.400735,6.069853 4.5663964,4.5663972 0 0 1 -2.0684288,-0.569633 v 0.06071 a 4.5617276,4.5617281 0 0 0 3.6605998,4.468345 4.6457717,4.6457722 0 0 1 -2.059094,0.07938 4.5570582,4.5570587 0 0 0 4.258234,3.165662 9.1514695,9.1514708 0 0 1 -5.6589692,1.942355 9.2635282,9.2635295 0 0 1 -1.0879059,-0.06537 12.863418,12.863419 0 0 0 7.0036761,2.049743 c 8.40441,0 12.975491,-6.947647 12.975491,-12.970808 0,-0.200772 0,-0.396875 0,-0.592978 a 9.2541902,9.2541913 0 0 0 2.259849,-2.357904 z"
       style="fill:#ffffff;stroke-width:0.46691" />
  </g>
  <inkscape:templateinfo>
    <inkscape:name>Icon</inkscape:name>
    <inkscape:author>Rodney Shupe</inkscape:author>
    <inkscape:date>2020-07-16</inkscape:date>
    <inkscape:keywords>icon</inkscape:keywords>
  </inkscape:templateinfo>
</svg>
